<svg width="32" height="32" viewBox="0 0 32 32" fill="none" xmlns="http://www.w3.org/2000/svg">
<path fill-rule="evenodd" clip-rule="evenodd" d="M32 16C32 24.8366 24.8366 32 16 32C12.4371 32 9.14629 30.8355 6.48728 28.8663L11.5 23.8536L13.8232 26.1768L14 26.3536L14.1768 26.1768L15.6768 24.6768L15.8536 24.5L15.6768 24.3232L13.3536 22L25.1768 10.1768L25.2408 10.1128L25.249 10.0226L25.499 7.27263L25.5408 6.81277L25.6768 6.67678L25.5634 6.56345L25.749 4.52263L25.8115 3.83496L25.3232 4.32322L10.3232 19.3232L8.82322 20.8232L8.64645 21L8.82322 21.1768L9.64645 22L4.82322 26.8232L4.51089 27.1356C1.71871 24.2553 0 20.3284 0 16C0 7.16344 7.16344 0 16 0C24.8366 0 32 7.16344 32 16ZM10 22.3536L5.17678 27.1768L4.86444 27.4891C5.21227 27.8263 5.57536 28.1478 5.95258 28.4526L5.5 28L5 27.5L10 22.5L11 23.5L6.00514 28.4949C6.03225 28.5166 6.05944 28.5382 6.0867 28.5597L11.1464 23.5L10 22.3536ZM9.35355 21L10 21.6464L10.3232 21.3232L10.8232 20.8232L11.1464 20.5L10.8232 20.1768L10.5 19.8536L9.35355 21ZM11.8536 20.5L12.6768 21.3232L13 21.6464L24.7592 9.88722L24.9885 7.36504L24.1768 8.17678L16.1768 16.1768L11.8536 20.5ZM11.5 20.8536L11.1768 21.1768L10.6768 21.6768L10.3536 22L14 25.6464L15.1464 24.5L12.8232 22.1768L12.3232 21.6768L11.5 20.8536Z" fill="white"/>
</svg>
